<?xml version="1.0" encoding="UTF-8"?>
<svg xmlns="http://www.w3.org/2000/svg" viewBox="0 0 1200 630" width="1200" height="630">
  <defs>
    <linearGradient id="g57995" x1="74.99999999999999%" y1="6.698729810778062%" x2="25.00000000000001%" y2="93.30127018922194%">
      <stop offset="0%" stop-color="#D97706"/>
      <stop offset="100%" stop-color="#B45309"/>
    </linearGradient>
  </defs>
  <rect width="1200" height="630" fill="url(#g57995)"/>
  <polygon points="519.2856345279142,237.87666097749025 589.2856345279142,197.87666097749025 659.2856345279142,237.87666097749025 589.2856345279142,277.87666097749025" fill="rgba(255,255,255,0.08)" stroke="rgba(255,255,255,0.15)" stroke-width="2"/><line x1="649.2856345279142" y1="242.87666097749025" x2="649.2856345279142" y2="297.87666097749025" stroke="rgba(255,255,255,0.12)" stroke-width="2"/><path d="M 834.045382682234 351.3503172667697 C 804.045382682234 341.3503172667697 754.045382682234 346.3503172667697 744.045382682234 281.3503172667697 L 834.045382682234 291.3503172667697 L 924.045382682234 281.3503172667697 C 914.045382682234 346.3503172667697 864.045382682234 341.3503172667697 834.045382682234 351.3503172667697 Z" fill="rgba(255,255,255,0.06)" stroke="rgba(255,255,255,0.12)" stroke-width="1.5"/><line x1="834.045382682234" y1="351.3503172667697" x2="834.045382682234" y2="291.3503172667697" stroke="rgba(255,255,255,0.12)" stroke-width="1.5"/><rect x="173.22648731060326" y="352.4009444564581" width="8" height="100" rx="1" fill="rgba(255,255,255,0.1)" transform="rotate(47.85571494605392 173.22648731060326 352.4009444564581)"/><circle cx="1041.565998236183" cy="212.82814783975482" r="30" fill="none" stroke="rgba(255,255,255,0.12)" stroke-width="2"/><line x1="1031.565998236183" y1="242.82814783975482" x2="1051.565998236183" y2="242.82814783975482" stroke="rgba(255,255,255,0.1)" stroke-width="2"/><line x1="1033.565998236183" y1="249.82814783975482" x2="1049.565998236183" y2="249.82814783975482" stroke="rgba(255,255,255,0.1)" stroke-width="2"/><circle cx="342.54230353981256" cy="93.07882377877831" r="3.9841154012829065" fill="rgba(255,255,255,0.08244293158873917)"/><circle cx="237.79911182355136" cy="461.95031779818237" r="4.816633031703532" fill="rgba(255,255,255,0.04873297497630119)"/><circle cx="507.88433842826635" cy="111.1833513318561" r="5.8070953553542495" fill="rgba(255,255,255,0.09933352794498206)"/><circle cx="1103.9781300118193" cy="418.72569071128964" r="4.62858800124377" fill="rgba(255,255,255,0.06540501976385713)"/><circle cx="1004.7032318077981" cy="455.53644872503355" r="4.5298987980932" fill="rgba(255,255,255,0.09613864032551647)"/><circle cx="994.2769618472084" cy="69.00483374716714" r="4.891740866936743" fill="rgba(255,255,255,0.06165716007351875)"/><circle cx="936.8371117161587" cy="163.6101986002177" r="4.361508601345122" fill="rgba(255,255,255,0.06843694303184748)"/><circle cx="476.3386887963861" cy="295.05580585682765" r="5.332367463968694" fill="rgba(255,255,255,0.09007287073880435)"/><circle cx="814.0527504961938" cy="411.4725593221374" r="5.338330816477537" fill="rgba(255,255,255,0.08875068524852395)"/><circle cx="112.3087978689" cy="332.07185744773597" r="4.097534000873566" fill="rgba(255,255,255,0.06695385871455073)"/><circle cx="704.0684253210202" cy="388.90967521118" r="5.504872863180935" fill="rgba(255,255,255,0.06520156813785434)"/><circle cx="1122.8623992064968" cy="155.1845666160807" r="2.852410439401865" fill="rgba(255,255,255,0.060894909929484126)"/><circle cx="141.75089905038476" cy="457.3551303637214" r="2.4671052787452936" fill="rgba(255,255,255,0.06933294348418713)"/><circle cx="915.8418916165829" cy="351.02926107821986" r="2.9765386767685413" fill="rgba(255,255,255,0.04971773846074939)"/><circle cx="1131.9958827225491" cy="210.78918542712927" r="3.87817098852247" fill="rgba(255,255,255,0.0442754239961505)"/>
  <circle cx="495.2560644596815" cy="537.202651463449" r="2.759230730589479" fill="rgba(255,255,255,0.03467941757524386)"/><circle cx="366.14713752642274" cy="98.33668485749513" r="2.5350906983949244" fill="rgba(255,255,255,0.06949263243703171)"/><circle cx="240.07065296173096" cy="620.4912049951963" r="2.244787513744086" fill="rgba(255,255,255,0.07281840902986006)"/><circle cx="44.624232687056065" cy="483.80328292027116" r="2.2336846464313567" fill="rgba(255,255,255,0.07381768158636987)"/><circle cx="844.208753015846" cy="581.77288048435" r="1.6505029243417084" fill="rgba(255,255,255,0.06895349432714284)"/><circle cx="219.15432829409838" cy="23.452714355662465" r="2.511493638623506" fill="rgba(255,255,255,0.06804953320650384)"/><circle cx="770.7509103231132" cy="100.2095141261816" r="2.47427779994905" fill="rgba(255,255,255,0.07956948758335784)"/><circle cx="455.94334211200476" cy="43.7444363348186" r="2.219611704815179" fill="rgba(255,255,255,0.0703961461270228)"/><circle cx="389.1444272361696" cy="369.1364311776124" r="2.485021575819701" fill="rgba(255,255,255,0.05375310983043164)"/><circle cx="851.9959316588938" cy="305.46465267660096" r="1.4818739467300475" fill="rgba(255,255,255,0.048461678747553374)"/><circle cx="692.674764432013" cy="271.657189889811" r="2.487409684341401" fill="rgba(255,255,255,0.07684418748365715)"/><circle cx="450.7250522263348" cy="220.980271124281" r="2.358656654600054" fill="rgba(255,255,255,0.058472090291325)"/><circle cx="925.1749254763126" cy="317.8549665561877" r="1.6054686061106622" fill="rgba(255,255,255,0.06292967702727764)"/><circle cx="953.0965975485742" cy="292.00695445295423" r="1.170707234647125" fill="rgba(255,255,255,0.06020974538521841)"/><circle cx="527.6842636987567" cy="380.6678795395419" r="1.6445102849975228" fill="rgba(255,255,255,0.07323723585112021)"/><circle cx="417.03600380569696" cy="259.49273691046983" r="2.3793265782296658" fill="rgba(255,255,255,0.07476526419166477)"/><circle cx="774.2889837361872" cy="423.18782329559326" r="1.6829257952049375" fill="rgba(255,255,255,0.03918026510626078)"/><circle cx="69.0458376891911" cy="606.81518597994" r="2.739117505494505" fill="rgba(255,255,255,0.04263210418401286)"/><circle cx="939.4722053781152" cy="287.69908242160454" r="2.1120208553038538" fill="rgba(255,255,255,0.05157050569076091)"/><circle cx="109.15055852383375" cy="339.34169630287215" r="1.2567881210707128" fill="rgba(255,255,255,0.04746847188333049)"/>
  <text x="600" y="335" font-family="system-ui, -apple-system, 'Segoe UI', sans-serif" font-size="68" font-weight="700" fill="rgba(0,0,0,0.15)" text-anchor="middle" letter-spacing="1">BECE Ghana</text>
  <text x="600" y="332" font-family="system-ui, -apple-system, 'Segoe UI', sans-serif" font-size="68" font-weight="700" fill="white" text-anchor="middle" letter-spacing="1">BECE Ghana</text>
  <g transform="translate(1140, 575)">
    <rect x="0" y="0" width="40" height="40" rx="8" fill="rgba(255,255,255,0.15)"/>
    <text x="20" y="29" font-family="sans-serif" font-weight="bold" font-size="24" fill="rgba(255,255,255,0.6)" text-anchor="middle">K</text>
  </g>
</svg>